<?xml version="1.0" encoding="utf-8"?>
<!-- Generator: Adobe Illustrator 24.3.0, SVG Export Plug-In . SVG Version: 6.00 Build 0)  -->
<svg version="1.1" id="Lager_1" xmlns="http://www.w3.org/2000/svg" xmlns:xlink="http://www.w3.org/1999/xlink" x="0px" y="0px"
	 viewBox="0 0 2834.65 2834.65" style="enable-background:new 0 0 2834.65 2834.65;" xml:space="preserve">
<style type="text/css">
	.st0{fill:#FFFFFF;}
	.st1{fill:#C1AA7C;}
</style>
<path class="st0" d="M2066.14,1124.99c-7.01-111.23-41.15-225.44-97.89-321.53c-60.25,19.29-118.11,27.8-174.13,27.8
	c-97,0-204.71-27.49-285.13-74.12c-80.42,46.63-188.13,74.12-285.13,74.12c-56.01,0-113.88-8.51-174.13-27.8
	c-56.74,96.1-90.87,210.3-97.89,321.53c-10.11,160.25,39.52,288.42,151.72,391.84c188.6,173.86,395.2,266.99,405.42,271.53
	c10.22-4.54,216.82-97.67,405.42-271.53C2026.62,1413.41,2076.25,1285.24,2066.14,1124.99z"/>
<path d="M2112.44,1122.07c-7.46-118.32-40.06-237.74-122.41-374.24c-88,30.39-144.54,37.03-195.91,37.03
	c-89.33,0-187.42-21.36-285.13-81.12c-97.71,59.76-195.8,81.12-285.13,81.12c-51.37,0-107.91-6.64-195.91-37.03
	c-82.35,136.5-114.95,255.92-122.41,374.24c-10.89,172.65,45.15,316.95,166.57,428.87c194.98,179.74,420.35,281.18,436.87,288.14
	c16.52-6.97,241.89-108.4,436.87-288.14C2067.29,1439.02,2123.33,1294.72,2112.44,1122.07z M1914.43,1516.83
	c-188.6,173.86-395.2,266.99-405.42,271.53c-10.22-4.54-216.82-97.67-405.42-271.53c-112.2-103.42-161.82-231.59-151.72-391.84
	c7.01-111.23,41.15-225.44,97.89-321.53c60.25,19.29,118.11,27.8,174.13,27.8c97,0,204.71-27.49,285.13-74.12
	c80.42,46.63,188.13,74.12,285.13,74.12c56.01,0,113.88-8.51,174.13-27.8c56.74,96.1,90.87,210.3,97.89,321.53
	C2076.25,1285.24,2026.62,1413.41,1914.43,1516.83z"/>
<path class="st1" d="M2133.82,1120.72c-7.67-121.59-46.68-266.85-133.73-398.57c-107.57,36.55-156.74,41.29-205.96,41.29
	c-85.78,0-183.15-20.89-285.13-84.34c-101.98,63.46-199.35,84.34-285.13,84.34c-49.22,0-98.39-4.74-205.96-41.29
	c-87.05,131.71-126.06,276.98-133.73,398.57c-11.31,179.4,47.03,329.45,173.43,445.96c198.35,182.84,404.53,274.7,451.38,295.8
	c46.85-21.1,253.04-112.96,451.38-295.8C2086.78,1450.18,2145.13,1300.13,2133.82,1120.72z M1945.87,1550.94
	c-194.98,179.74-420.35,281.18-436.87,288.14c-16.52-6.97-241.89-108.4-436.87-288.14c-121.42-111.93-177.46-256.22-166.57-428.87
	c7.46-118.32,40.06-237.74,122.41-374.24c88,30.39,144.54,37.03,195.91,37.03c89.33,0,187.42-21.36,285.13-81.12
	c97.71,59.76,195.8,81.12,285.13,81.12c51.37,0,107.91-6.64,195.91-37.03c82.35,136.5,114.95,255.92,122.41,374.24
	C2123.33,1294.72,2067.29,1439.02,1945.87,1550.94z"/>
<g>
	<path d="M1172.71,1187.59v-50.76c21.58,19.19,56.36,33.98,83.93,33.98c25.98,0,40.77-13.19,40.77-34.38
		c0-61.55-122.71-44.77-122.71-129.1c0-49.96,43.56-77.55,99.12-77.55c27.58,0,49.16,6.79,60.75,12.79v49.96
		c-15.59-12.39-43.57-26.38-69.55-26.38c-23.58,0-40.37,11.19-40.37,31.97c0,55.96,123.5,38.77,123.5,128.7
		c0,50.76-39.57,80.74-97.12,80.74C1213.87,1207.58,1183.5,1195.18,1172.71,1187.59z"/>
	<path d="M1460.08,970.16v82.74h86.74v42.37c-14.79-4.8-35.18-6.8-58.76-6.8h-27.98v65.15c0,18.39,0.8,36.37,5.59,49.96h-60.75
		c4.8-13.59,5.59-31.57,5.59-49.96V983.75c0-17.98-0.8-35.97-5.59-49.56h170.67v46.37c-17.59-6.79-33.98-10.39-63.55-10.39H1460.08z
		"/>
	<path d="M1679.51,1103.26v50.36c0,18.39,0.8,36.37,5.99,49.96h-61.15c4.8-13.59,5.59-31.57,5.59-49.96V983.75
		c0-17.98-0.8-35.97-5.59-49.56h55.16v120.31l83.93-89.13c13.99-15.19,18.79-23.58,19.59-31.18h67.55
		c-8.39,5.99-30.78,26.78-52.36,49.56l-66.75,69.95l83.14,102.32c17.59,21.58,27.58,31.57,43.97,47.56h-68.34l-93.53-117.91
		L1679.51,1103.26z"/>
</g>
<g>
	<path d="M1214.71,1281.08v290.38c50.73,39.62,100.19,73.19,144.08,100.55v-390.92H1214.71z"/>
	<path d="M1436.96,1281.08v436.85c32.73,18.06,57.96,30.49,72.04,37.17c14.08-6.68,39.3-19.12,72.04-37.17v-436.85H1436.96z"/>
	<path d="M1659.22,1281.08v390.92c43.88-27.36,93.35-60.93,144.08-100.55v-290.38H1659.22z"/>
	<path d="M994.38,1281.08c20.25,81.7,63.22,152.32,129.66,213.55c4.15,3.83,8.32,7.61,12.49,11.36v-224.91H994.38z"/>
	<path d="M1881.48,1505.99c4.17-3.75,8.33-7.53,12.49-11.36c66.43-61.24,109.41-131.85,129.66-213.55h-142.15V1505.99z"/>
</g>
</svg>
